<mxfile host="app.diagrams.net" modified="2021-12-25T08:38:41.412Z" agent="5.0 (Windows NT 10.0; Win64; x64) AppleWebKit/537.36 (KHTML, like Gecko) Chrome/96.0.4664.110 Safari/537.36 Edg/96.0.1054.62" etag="htd4yfsJY1Xdo776b4BS" version="16.0.3" type="github">
  <diagram id="kzGisLi0H4hDdgbpCc58" name="Page-1">
    <mxGraphModel dx="1038" dy="539" grid="1" gridSize="10" guides="1" tooltips="1" connect="1" arrows="1" fold="1" page="1" pageScale="1" pageWidth="827" pageHeight="827" math="0" shadow="0">
      <root>
        <mxCell id="0" />
        <mxCell id="1" parent="0" />
        <mxCell id="out4iCBxHCImszKJyRuK-1" value="" style="endArrow=classic;html=1;rounded=0;strokeWidth=5;" parent="1" edge="1">
          <mxGeometry width="50" height="50" relative="1" as="geometry">
            <mxPoint x="118" y="714" as="sourcePoint" />
            <mxPoint x="1020" y="713" as="targetPoint" />
          </mxGeometry>
        </mxCell>
        <mxCell id="out4iCBxHCImszKJyRuK-2" value="" style="endArrow=classic;html=1;rounded=0;strokeWidth=5;" parent="1" edge="1">
          <mxGeometry width="50" height="50" relative="1" as="geometry">
            <mxPoint x="119" y="714" as="sourcePoint" />
            <mxPoint x="119" y="113" as="targetPoint" />
          </mxGeometry>
        </mxCell>
        <mxCell id="out4iCBxHCImszKJyRuK-3" value="时间尺度" style="text;html=1;align=center;verticalAlign=middle;resizable=0;points=[];autosize=1;strokeColor=none;fillColor=none;fontSize=38;" parent="1" vertex="1">
          <mxGeometry x="135" y="110" width="170" height="50" as="geometry" />
        </mxCell>
        <mxCell id="out4iCBxHCImszKJyRuK-4" value="空间尺度" style="text;html=1;align=center;verticalAlign=middle;resizable=0;points=[];autosize=1;strokeColor=none;fillColor=none;fontSize=38;" parent="1" vertex="1">
          <mxGeometry x="830" y="640" width="170" height="50" as="geometry" />
        </mxCell>
        <mxCell id="out4iCBxHCImszKJyRuK-5" value="nm" style="text;html=1;align=center;verticalAlign=middle;resizable=0;points=[];autosize=1;strokeColor=none;fillColor=none;fontSize=38;" parent="1" vertex="1">
          <mxGeometry x="250" y="720" width="70" height="50" as="geometry" />
        </mxCell>
        <mxCell id="out4iCBxHCImszKJyRuK-6" value="&lt;span style=&quot;font-weight: normal&quot;&gt;μm&lt;/span&gt;" style="text;html=1;align=center;verticalAlign=middle;resizable=0;points=[];autosize=1;strokeColor=none;fillColor=none;fontSize=38;labelBackgroundColor=none;fontStyle=1" parent="1" vertex="1">
          <mxGeometry x="414" y="720" width="70" height="50" as="geometry" />
        </mxCell>
        <mxCell id="out4iCBxHCImszKJyRuK-7" value="mm" style="text;html=1;align=center;verticalAlign=middle;resizable=0;points=[];autosize=1;strokeColor=none;fillColor=none;fontSize=38;labelBackgroundColor=none;" parent="1" vertex="1">
          <mxGeometry x="550" y="720" width="80" height="50" as="geometry" />
        </mxCell>
        <mxCell id="out4iCBxHCImszKJyRuK-8" value="m" style="text;html=1;align=center;verticalAlign=middle;resizable=0;points=[];autosize=1;strokeColor=none;fillColor=none;fontSize=38;labelBackgroundColor=none;" parent="1" vertex="1">
          <mxGeometry x="700" y="720" width="50" height="50" as="geometry" />
        </mxCell>
        <mxCell id="out4iCBxHCImszKJyRuK-9" value="ns" style="text;html=1;align=center;verticalAlign=middle;resizable=0;points=[];autosize=1;strokeColor=none;fillColor=none;fontSize=38;" parent="1" vertex="1">
          <mxGeometry x="40" y="500" width="60" height="50" as="geometry" />
        </mxCell>
        <mxCell id="out4iCBxHCImszKJyRuK-10" value="μs" style="text;html=1;align=center;verticalAlign=middle;resizable=0;points=[];autosize=1;strokeColor=none;fillColor=none;fontSize=38;" parent="1" vertex="1">
          <mxGeometry x="35" y="340" width="60" height="50" as="geometry" />
        </mxCell>
        <mxCell id="out4iCBxHCImszKJyRuK-11" value="ms" style="text;html=1;align=center;verticalAlign=middle;resizable=0;points=[];autosize=1;strokeColor=none;fillColor=none;fontSize=38;" parent="1" vertex="1">
          <mxGeometry x="30" y="230" width="70" height="50" as="geometry" />
        </mxCell>
        <mxCell id="out4iCBxHCImszKJyRuK-12" value="s" style="text;html=1;align=center;verticalAlign=middle;resizable=0;points=[];autosize=1;strokeColor=none;fillColor=none;fontSize=38;" parent="1" vertex="1">
          <mxGeometry x="60" y="120" width="30" height="50" as="geometry" />
        </mxCell>
        <mxCell id="out4iCBxHCImszKJyRuK-23" value="" style="rounded=0;orthogonalLoop=1;jettySize=auto;html=1;fontSize=38;strokeWidth=5;" parent="1" source="out4iCBxHCImszKJyRuK-13" target="out4iCBxHCImszKJyRuK-22" edge="1">
          <mxGeometry relative="1" as="geometry" />
        </mxCell>
        <mxCell id="out4iCBxHCImszKJyRuK-37" style="edgeStyle=orthogonalEdgeStyle;rounded=0;orthogonalLoop=1;jettySize=auto;html=1;entryX=1;entryY=1;entryDx=0;entryDy=0;dashed=1;fontSize=24;strokeWidth=5;exitX=1;exitY=0.5;exitDx=0;exitDy=0;startArrow=classic;startFill=1;curved=1;" parent="1" source="out4iCBxHCImszKJyRuK-13" target="out4iCBxHCImszKJyRuK-22" edge="1">
          <mxGeometry relative="1" as="geometry">
            <Array as="points">
              <mxPoint x="450" y="650" />
            </Array>
          </mxGeometry>
        </mxCell>
        <mxCell id="out4iCBxHCImszKJyRuK-13" value="量子力学" style="rounded=0;whiteSpace=wrap;html=1;labelBackgroundColor=none;fontSize=38;" parent="1" vertex="1">
          <mxGeometry x="130" y="620" width="180" height="60" as="geometry" />
        </mxCell>
        <mxCell id="out4iCBxHCImszKJyRuK-18" value="fs" style="text;html=1;align=center;verticalAlign=middle;resizable=0;points=[];autosize=1;strokeColor=none;fillColor=none;fontSize=38;" parent="1" vertex="1">
          <mxGeometry x="50" y="640" width="50" height="50" as="geometry" />
        </mxCell>
        <mxCell id="out4iCBxHCImszKJyRuK-25" value="" style="edgeStyle=none;rounded=0;orthogonalLoop=1;jettySize=auto;html=1;fontSize=38;strokeWidth=5;" parent="1" source="out4iCBxHCImszKJyRuK-22" target="out4iCBxHCImszKJyRuK-24" edge="1">
          <mxGeometry relative="1" as="geometry" />
        </mxCell>
        <mxCell id="out4iCBxHCImszKJyRuK-38" style="edgeStyle=orthogonalEdgeStyle;rounded=0;orthogonalLoop=1;jettySize=auto;html=1;entryX=1;entryY=1;entryDx=0;entryDy=0;dashed=1;fontSize=24;strokeWidth=5;exitX=1;exitY=0.5;exitDx=0;exitDy=0;startArrow=classic;startFill=1;curved=1;" parent="1" source="out4iCBxHCImszKJyRuK-22" target="out4iCBxHCImszKJyRuK-24" edge="1">
          <mxGeometry relative="1" as="geometry" />
        </mxCell>
        <mxCell id="out4iCBxHCImszKJyRuK-22" value="分子动力学" style="whiteSpace=wrap;html=1;fontSize=38;rounded=0;labelBackgroundColor=none;" parent="1" vertex="1">
          <mxGeometry x="257" y="470" width="193" height="60" as="geometry" />
        </mxCell>
        <mxCell id="out4iCBxHCImszKJyRuK-27" value="" style="edgeStyle=none;rounded=0;orthogonalLoop=1;jettySize=auto;html=1;fontSize=38;strokeWidth=5;" parent="1" source="out4iCBxHCImszKJyRuK-24" target="out4iCBxHCImszKJyRuK-26" edge="1">
          <mxGeometry relative="1" as="geometry" />
        </mxCell>
        <mxCell id="out4iCBxHCImszKJyRuK-44" style="edgeStyle=orthogonalEdgeStyle;curved=1;rounded=0;orthogonalLoop=1;jettySize=auto;html=1;entryX=1;entryY=0.5;entryDx=0;entryDy=0;dashed=1;fontSize=34;startArrow=classic;startFill=1;strokeWidth=5;exitX=1;exitY=0.5;exitDx=0;exitDy=0;" parent="1" source="out4iCBxHCImszKJyRuK-24" target="out4iCBxHCImszKJyRuK-26" edge="1">
          <mxGeometry relative="1" as="geometry">
            <Array as="points">
              <mxPoint x="740" y="350" />
              <mxPoint x="740" y="190" />
            </Array>
          </mxGeometry>
        </mxCell>
        <mxCell id="out4iCBxHCImszKJyRuK-24" value="火焰动力学" style="whiteSpace=wrap;html=1;fontSize=38;rounded=0;labelBackgroundColor=none;" parent="1" vertex="1">
          <mxGeometry x="370" y="320" width="210" height="60" as="geometry" />
        </mxCell>
        <mxCell id="out4iCBxHCImszKJyRuK-26" value="流体力学" style="whiteSpace=wrap;html=1;fontSize=38;rounded=0;labelBackgroundColor=none;" parent="1" vertex="1">
          <mxGeometry x="530" y="160" width="160" height="60" as="geometry" />
        </mxCell>
        <mxCell id="out4iCBxHCImszKJyRuK-28" value="基元反应" style="text;html=1;align=center;verticalAlign=middle;resizable=0;points=[];autosize=1;strokeColor=none;fillColor=none;fontSize=24;" parent="1" vertex="1">
          <mxGeometry x="160" y="560" width="110" height="30" as="geometry" />
        </mxCell>
        <mxCell id="out4iCBxHCImszKJyRuK-29" value="化学反应路径" style="text;html=1;align=center;verticalAlign=middle;resizable=0;points=[];autosize=1;strokeColor=none;fillColor=none;fontSize=24;" parent="1" vertex="1">
          <mxGeometry x="240" y="414" width="160" height="30" as="geometry" />
        </mxCell>
        <mxCell id="out4iCBxHCImszKJyRuK-30" value="化学反应速率" style="text;html=1;align=center;verticalAlign=middle;resizable=0;points=[];autosize=1;strokeColor=none;fillColor=none;fontSize=24;" parent="1" vertex="1">
          <mxGeometry x="375" y="250" width="160" height="30" as="geometry" />
        </mxCell>
        <mxCell id="out4iCBxHCImszKJyRuK-31" value="DeePMD" style="whiteSpace=wrap;html=1;fontSize=38;rounded=0;labelBackgroundColor=none;fillColor=#fff2cc;strokeColor=#d6b656;" parent="1" vertex="1">
          <mxGeometry x="470.5" y="590" width="193" height="60" as="geometry" />
        </mxCell>
        <mxCell id="out4iCBxHCImszKJyRuK-34" value="Deep Reactive MD" style="whiteSpace=wrap;html=1;fontSize=38;rounded=0;labelBackgroundColor=none;fillColor=#fff2cc;strokeColor=#d6b656;" parent="1" vertex="1">
          <mxGeometry x="600" y="410" width="220" height="104" as="geometry" />
        </mxCell>
        <mxCell id="out4iCBxHCImszKJyRuK-39" value="DeepMR" style="whiteSpace=wrap;html=1;fontSize=34;rounded=0;labelBackgroundColor=none;fillColor=#fff2cc;strokeColor=#d6b656;" parent="1" vertex="1">
          <mxGeometry x="760" y="280" width="220" height="60" as="geometry" />
        </mxCell>
        <mxCell id="out4iCBxHCImszKJyRuK-40" value="DeepCombustion" style="whiteSpace=wrap;html=1;fontSize=28;rounded=0;labelBackgroundColor=none;fillColor=#fff2cc;strokeColor=#d6b656;" parent="1" vertex="1">
          <mxGeometry x="760" y="220" width="220" height="60" as="geometry" />
        </mxCell>
        <mxCell id="out4iCBxHCImszKJyRuK-45" value="机器学习在燃烧多尺度建模中的应用" style="text;html=1;align=center;verticalAlign=middle;resizable=0;points=[];autosize=1;strokeColor=#d6b656;fillColor=#fff2cc;fontSize=52;" parent="1" vertex="1">
          <mxGeometry x="130" y="15" width="850" height="70" as="geometry" />
        </mxCell>
      </root>
    </mxGraphModel>
  </diagram>
</mxfile>
